# xmcd CD database file
#
# Track frame offsets:
#	150
#	12435
#	25889
#	39545
#	51245
#	64400
#	77510
#	92595
#	106890
#	121598
#	134632
#	148930
#	163130
#	175900
#	190739
#	205285
#	220352
#	234503
#	250028
#	262406
#
# Disc length: 3651 seconds
#
# Revision: 0
# Processed by: cddbd v1.5.2PL0 Copyright (c) Steve Scherf et al.
# Submitted via: CDex 1.51
#
DISCID=270e4114
DTITLE=Various Artist - Cafe Jazz - Late Night Jazz
DYEAR=2006
DGENRE=Jazz
TTITLE0=Dizzy Gillespie - Cocktails For Two
TTITLE1=Duke Ellington and His Orchestra - Satin Doll
TTITLE2=Sarah Vaughan - Just Friends
TTITLE3=Jackie Gleason and His Orchestra - Tenderly
TTITLE4=Les Baxter and His Orchestra - Ruby
TTITLE5=Frank Sinatra - I Get A Kick Out Of You
TTITLE6=Miles Davis - Enigma
TTITLE7=Bud Powell - Stricly Confidential
TTITLE8=Peggy Lee - You Go To My Head
TTITLE9=Dave Brubeck Octet - September In The Rain
TTITLE10=Chet Baker - Frenesi
TTITLE11=Johnny Mercer - One For My Baby
TTITLE12=Laurindo Almeida and Bud Shank - Hazardous
TTITLE13=Django Reinhardt - Nuages
TTITLE14=Ella Fitzgerald - I've Got A Crush On You
TTITLE15=Stan Getz - What's New?
TTITLE16=Dean Martin - That's Amore
TTITLE17=Erroll Garner - How High The Moon
TTITLE18=Nat King Cole - Pretend
TTITLE19=Peggy Lee - I've Got You Under My Skin
EXTD=YEAR: 2006
EXTT0=
EXTT1=
EXTT2=
EXTT3=
EXTT4=
EXTT5=
EXTT6=
EXTT7=
EXTT8=
EXTT9=
EXTT10=
EXTT11=
EXTT12=
EXTT13=
EXTT14=
EXTT15=
EXTT16=
EXTT17=
EXTT18=
EXTT19=
PLAYORDER=
